<?xml version="1.0" standalone="no"?><!DOCTYPE svg PUBLIC "-//W3C//DTD SVG 1.1//EN" "http://www.w3.org/Graphics/SVG/1.1/DTD/svg11.dtd"><svg t="1650274645158" class="icon" viewBox="0 0 1024 1024" version="1.1" xmlns="http://www.w3.org/2000/svg" p-id="4599" xmlns:xlink="http://www.w3.org/1999/xlink" width="32" height="32"><defs><style type="text/css">@font-face { font-family: feedback-iconfont; src: url("//at.alicdn.com/t/font_1031158_u69w8yhxdu.woff2?t=1630033759944") format("woff2"), url("//at.alicdn.com/t/font_1031158_u69w8yhxdu.woff?t=1630033759944") format("woff"), url("//at.alicdn.com/t/font_1031158_u69w8yhxdu.ttf?t=1630033759944") format("truetype"); }
</style></defs><path d="M100.7 672.3c21.3 56.8 72.9 127.1 134.4 183.4 70.3 64.2 141.1 99.6 199.4 99.6h475.1c6.8 0 13.5-2.8 18.3-7.7 4.9-4.9 7.5-11.5 7.5-18.4V768.1c0.1-10.6-6.2-20.1-15.9-24.2l-8.2-3.4c-25.4-10.5-78.3-32.3-132.4-53.6l-8.2-3.2 5.9-6.5c61.3-67.5 95.2-154.9 95.4-246.1 1.7-129.4-66.7-250.3-178.4-315.5-111.8-65.2-250.6-65.2-362.4 0C219.4 180.7 151 301.6 152.7 431c0 15.9 1 31.9 3 47.6v0.1c1 9.3 6.9 17.4 15.6 21.1 8.6 3.7 18.6 2.3 26-3.4 7.4-5.8 11-15.1 9.5-24.4v-0.2c-1.7-13.4-2.6-27.1-2.6-40.7 1.1-140.5 96.9-262.4 233.1-296.6 136.2-34.2 278.3 28 345.5 151.3 67.2 123.1 42.7 276-59.4 372.1 0 0.1-0.1 0.2-0.1 0.2-0.4 0.7-1 1.8-2.2 2.8l-2.8 2.5-3.5-1.4c-29.9-12.1-60.9-22.4-92.1-30.5-22.3-3-44.4 7.3-56.4 26.4l-0.2 0.3c-10.5 14.7-13.3 33.6-7.4 50.6 10.9 19.9 23.9 38.9 38.6 56.2l8.4 10h-13.1c-66.5-0.1-131.7-12.2-193.8-36.2-32.2-12.4-70.3-53.5-104-89.7l-0.8-0.9c-46.7-50.2-90.8-97.6-137.1-97.6-17.1 0.1-33.4 6.6-45.9 18.3l-0.1 0.1c-16.6 15-32 45.1-10.2 103.3z m44.1-63.8c3.1-3.5 7.5-5.5 12.1-5.6h0.1c22.3 0 58.4 36.8 99.8 81.3 39.4 42.4 80.1 86.3 123.6 103.5 68.1 26.2 139.7 39.5 212.8 39.5h0.3c22.5 0.3 45.1-1.2 67.3-4.4 9.1-1.6 16.6-8 19.8-16.7 3.2-8.8 1.5-18.8-4.5-26-25-29.9-58-71.8-67.3-86.4l-2.2-3.5 1.5-2-0.7-6.3 7.9 1.3c24.9 4 172.1 62.5 264.9 100.9l3.7 1.5v111.3h-6v6.1H441.6l-0.8 26.3-12.1-0.2v-26.3c-22.6-1.3-48.4-10.1-76.7-26-27.2-15.3-56.5-37.2-84.8-63.6-54.5-50.5-100.9-113.2-118.3-159.6-9.8-26.1-8.4-40.4-4.1-45.1z" p-id="4600"></path><path d="M468.1 507.3l2-1.3 0.9-2.2c9.5-22.7 15.6-41.5 18.2-56.7v74.2l1.1 1.9c4.6 7.7 10 11.5 16 11.5s11.4-3.9 16-11.5l1.1-1.9v-155c0-7.8 2.5-10.3 10.3-10.3h97.8c7 0 9.2 1.7 9.8 2.4 1.3 1.5 1 4.8 0.7 6.6l-0.1 0.7v155.6l1.1 1.9c4.6 7.7 10 11.5 16 11.5s11.4-3.9 16-11.5l1.1-1.9V360.5c1.1-11.8-1.4-21.2-7.5-28-6.6-7.3-17-11-31-11h-44.4l7.6-26.8h79.1l2.1-1.6c6.2-4.6 9.3-9.9 9.3-15.6 0-5.7-3.1-10.9-9.3-15.6l-2.1-1.6H488.5l-2.1 1.6c-3.8 2.8-6.4 5.9-7.9 9.1-5.2-5.1-13.3-9.3-26.1-10.7H341.9l-2.1 1.6c-6.2 4.6-9.3 9.9-9.3 15.6 0 5.7 3.1 10.9 9.3 15.6l2.1 1.6h106.5c1.7 0 2.9 0.1 3.8 0.2-7.6 15.3-24.7 33.3-50.8 53.6-7.1-10.1-14.8-20.3-23.2-30.3l-1.3-1.6-1.9-0.6c-7.7-3-13.8-2.8-18.3 0.9-7.2 5.8-5.4 16.6-4.8 20.1l0.4 2.2 1.4 1.7c10.2 11.9 22.1 30 35.4 54h-59l-1.9 1.1c-7.7 4.6-11.5 10-11.5 16s3.9 11.4 11.5 16l1.9 1.1h61.4v136.2c0.6 7.2-0.5 12.2-2.9 13.8-1.8 1.1-9.4 3.9-34.2-9.3l-3.3-1.7-3.4 1.4c-7.1 2.8-11.7 7.2-13.7 12.8-2 6-0.8 12.7 3.6 20.1l1.4 2.3 2.5 1c17.4 7 32 10.4 44 10.4 9.8 0 17.8-2.3 24.3-6.9 11.6-8.2 16.9-23.3 16-44.7V429.2h28.7c1 3.1 2.2 16.2-16.6 62.3l-0.6 1.5v1.6c0 8.7 2.7 14.6 8 17.4 8.8 4.6 19.3-2.4 22.8-4.7z m21.1-147.2v57.5c-0.9-3.4-2.2-6.4-3.8-9.1-3.5-5.6-10.5-12.6-24.3-13.6h-32.3c-2.8-5.5-6.1-11.3-9.7-17.5 43.4-34.3 65.5-61.7 67.8-83.7v-0.1l1.6 1.2h77.6l-7.6 26.8h-30.6c-25-0.1-38.7 13.6-38.7 38.5z" p-id="4601"></path><path d="M691.2 592.8l-0.6-1.8-1.3-1.3c-26.5-26.5-53.5-50.4-80.2-70.9l-1.1-0.8-1.3-0.4c-9.1-3-16.1-2.5-20.9 1.7-4.7 4-6.3 10.6-4.8 19.5l0.5 2.9 2.2 1.9c28.3 24.3 56 48.9 82.3 73.1l1.8 1.6 2.4 0.4c2.1 0.4 4.1 0.5 6 0.5 5.9 0 10.5-1.8 13.5-5.4 6-7.4 2.6-17.6 1.5-21z" p-id="4602"></path><path d="M596.9 399.5l-0.1-1.7-0.8-1.6c-1.7-3.4-6.8-13.6-16.3-13.6s-14.6 10.2-16.3 13.6l-0.9 1.8 0.1 2c3.9 106.6-30 166.9-103.8 184.4l-3.3 0.8-1.7 2.9c-4.7 7.8-5.8 14.5-3.3 20.2 2.3 5.2 7.2 8.6 14.7 10.1l1.6 0.3 1.6-0.3c89.4-19.2 132.7-92.8 128.5-218.9z" p-id="4603"></path></svg>