<?xml version="1.0" standalone="no"?><!DOCTYPE svg PUBLIC "-//W3C//DTD SVG 1.1//EN" "http://www.w3.org/Graphics/SVG/1.1/DTD/svg11.dtd"><svg t="1631951426217" class="icon" viewBox="0 0 1077 1024" version="1.1" xmlns="http://www.w3.org/2000/svg" p-id="3186" xmlns:xlink="http://www.w3.org/1999/xlink" width="33.65625" height="32"><defs><style type="text/css"></style></defs><path d="M860.944963 632.524308c0 34.541867 28.786787 63.32723 63.32723 63.32723s63.32723-28.786787 63.32723-63.32723l0-246.113115c0-34.541867-28.786787-63.32723-63.32723-63.32723s-63.32723 28.786787-63.32723 63.32723l0 246.113115zM636.422828 174.842793c0-17.270222 15.83163-30.226803 30.226803-30.226803 17.270222 0 30.226803 12.954446 30.226803 30.226803s-15.83163 30.226803-30.226803 30.226803c-17.270222 0-30.226803-12.954446-30.226803-30.226803l0 0 0 0zM396.068352 174.842793c0-17.270222 12.954446-30.226803 30.226803-30.226803s30.226803 12.954446 30.226803 30.226803-12.954446 30.226803-30.226803 30.226803c-17.270222 0-30.226803-12.954446-30.226803-30.226803l0 0 0 0zM265.099539 776.448991c0 25.906044 21.587421 47.493465 50.372785 47.493465l56.130712 0 0 136.730299c0 34.541867 28.786787 63.32723 63.32723 63.32723s63.32723-28.786787 63.32723-63.32723l0-136.730299 97.869097 0 0 136.730299c0 34.541867 25.906044 63.32723 63.32723 63.32723 34.541867 0 63.32723-28.786787 63.32723-63.32723l0-136.730299 56.130712 0c28.786787 0 50.372785-21.587421 50.372785-47.493465l0-453.362892-559.864253 0 0 453.362892-4.317199 0zM824.961657 284.229167c-8.635111-84.918211-64.762975-156.876281-148.243306-194.298891l51.815648-74.838813c4.317199-4.317199 2.876472-11.513007-2.876472-12.954446-4.317199-2.876472-8.635111 0-12.954446 2.876472l-54.695679 76.280253c-37.421898-12.954446-74.838813-21.587421-115.14359-21.587421-41.739098 0-80.600299 8.635111-118.018638 21.587421l-51.815648-76.280253c-4.317199-4.317199-8.635111-7.195807-12.954446-2.876472-4.317199 2.876472-7.195807 8.635111-2.876472 12.954446l51.815648 74.838813c-83.474636 38.859066-139.605348 109.383528-148.243306 194.298891l564.182165 0zM101.029586 632.524308c0 34.541867 28.786787 63.32723 63.32723 63.32723s63.32723-28.786787 63.32723-63.32723l0-246.113115c0-34.541867-28.786787-63.32723-63.32723-63.32723s-63.32723 28.786787-63.32723 63.32723l0 246.113115z" p-id="3187"></path></svg>