<?xml version="1.0" standalone="no"?><!DOCTYPE svg PUBLIC "-//W3C//DTD SVG 1.1//EN" "http://www.w3.org/Graphics/SVG/1.1/DTD/svg11.dtd"><svg t="1632813095333" class="icon" viewBox="0 0 1024 1024" version="1.1" xmlns="http://www.w3.org/2000/svg" p-id="3593" xmlns:xlink="http://www.w3.org/1999/xlink" width="32" height="32"><defs><style type="text/css"></style></defs><path d="M512 0C230.4 0 0 230.343111 0 512c0 281.6 230.343111 511.943111 512 511.943111 281.6 0 512-230.343111 512-511.943111 0-281.656889-230.4-512-512-512z m-23.438222 704.625778a56.661333 56.661333 0 0 1-78.108445 0l-182.101333-176.924445a56.718222 56.718222 0 0 1 0-78.165333 56.661333 56.661333 0 0 1 78.108444 0l140.572445 135.338667 270.620444-265.500445a56.661333 56.661333 0 0 1 78.108445 0 56.718222 56.718222 0 0 1 0 78.165334l-307.2 307.086222z m0 0" fill="#67C23A" p-id="3594"></path></svg>