<?xml version="1.0" standalone="no"?><!DOCTYPE svg PUBLIC "-//W3C//DTD SVG 1.1//EN" "http://www.w3.org/Graphics/SVG/1.1/DTD/svg11.dtd"><svg t="1631951615729" class="icon" viewBox="0 0 1024 1024" version="1.1" xmlns="http://www.w3.org/2000/svg" p-id="2404" xmlns:xlink="http://www.w3.org/1999/xlink" width="32" height="32"><defs><style type="text/css"></style></defs><path d="M491.74861956 255.83404367l11.99593569-0.76622393C756.47486242 238.88648893 745.73948865 21.95449259 745.17923891 13.40244502L745.17923891-0.47197511l-13.78379149 1.59835958C474.03484089 30.97616125 490.44686281 241.74541042 490.64459801 243.87106383l1.10402155 11.96297984zM890.90184505 757.72718538c-4.90218525-1.82905063-119.90168412-46.17117005-116.3836453-173.98226232 3.00722288-127.63807396 88.56889331-159.04501547 92.16108283-160.3055774l14.34404124-4.88570732-7.67047811-13.06700138c-2.35634451-4.01237685-59.08163106-98.16728965-185.12958443-98.16728965-21.89917383 0-44.82821845 2.93307219-68.91071846 8.93927901l-111.44850416 35.22982211-81.9612419-26.26582622c-1.32647366-0.51081594-33.02177901-12.62209716-77.06729564-12.62209716-43.95488797 0-107.65857942 12.45731784-161.52494449 71.80259582-87.95097079 96.70075355-104.88204761 222.85581348-50.32360933 374.93066303 42.87558334 120.50312869 128.0994561 261.84260447 227.18951004 263.62222132l3.01546184 0.02471689c32.84876071 0 53.133097-8.7662607 72.75831599-17.24415756 22.48414045-9.71374189 45.72626584-19.75704243 92.76252742-19.75704243l2.94955013 0.01647793c5.29765567 0.84037462 37.67679526 6.36048238 83.18060899 22.64068082 24.65098872 8.92280106 43.79834761 12.89398307 62.07237601 12.89398307 35.34516765 0 66.90041057-15.39862899 99.28778914-48.45336386 77.7676078-78.85515142 116.54018564-194.99986667 118.14678417-199.90205192l3.69105714-11.29562352-11.13908312-4.15243927z" p-id="2405"></path></svg>