<?xml version="1.0" standalone="no"?><!DOCTYPE svg PUBLIC "-//W3C//DTD SVG 1.1//EN" "http://www.w3.org/Graphics/SVG/1.1/DTD/svg11.dtd"><svg t="1650274546792" class="icon" viewBox="0 0 1024 1024" version="1.1" xmlns="http://www.w3.org/2000/svg" p-id="3328" xmlns:xlink="http://www.w3.org/1999/xlink" width="32" height="32"><defs><style type="text/css">@font-face { font-family: feedback-iconfont; src: url("//at.alicdn.com/t/font_1031158_u69w8yhxdu.woff2?t=1630033759944") format("woff2"), url("//at.alicdn.com/t/font_1031158_u69w8yhxdu.woff?t=1630033759944") format("woff"), url("//at.alicdn.com/t/font_1031158_u69w8yhxdu.ttf?t=1630033759944") format("truetype"); }
</style></defs><path d="M344 632c-9.6 11.2-14.4 17.6-16 19.2-14.4 16-14.4 28.8 1.6 38.4 11.2 4.8 20.8 1.6 30.4-6.4 1.6-1.6 4.8-6.4 9.6-12.8 11.2-11.2 17.6-16 20.8-16 1.6 0 4.8 1.6 9.6 6.4 27.2 24 62.4 35.2 104 35.2h180.8c12.8-1.6 19.2-9.6 19.2-24-1.6-11.2-8-17.6-20.8-17.6h-158.4c-75.2 0-113.6-17.6-113.6-54.4v-100.8c4.8-24-6.4-35.2-27.2-35.2h-41.6c-14.4 1.6-22.4 9.6-24 24 0 16 6.4 25.6 19.2 25.6h24l4.8 4.8V608s-8 9.6-22.4 24zM361.6 331.2c-16-4.8-27.2-3.2-36.8 6.4-6.4 12.8-3.2 22.4 8 30.4 17.6 11.2 36.8 24 56 38.4 11.2 9.6 20.8 8 32-4.8 6.4-12.8 4.8-24-6.4-35.2-16-14.4-35.2-25.6-52.8-35.2z" p-id="3329"></path><path d="M500.8 382.4c60.8 0 118.4-1.6 172.8-6.4 12.8-1.6 19.2-11.2 19.2-27.2-3.2-12.8-12.8-19.2-27.2-19.2-78.4 4.8-142.4 8-188.8 8-24 0-33.6 11.2-33.6 33.6V448c-1.6 51.2-8 100.8-19.2 150.4-3.2 16 1.6 27.2 14.4 32 14.4 1.6 24-6.4 30.4-20.8 11.2-38.4 17.6-88 17.6-153.6h131.2c4.8 1.6 6.4 3.2 4.8 8-6.4 20.8-16 38.4-27.2 52.8-20.8-16-36.8-25.6-48-32-16-4.8-28.8-3.2-38.4 4.8-9.6 12.8-6.4 22.4 6.4 32 24 17.6 40 28.8 46.4 35.2-9.6 9.6-28.8 24-56 40-4.8 4.8-9.6 6.4-9.6 6.4-12.8 9.6-17.6 19.2-11.2 32 8 9.6 19.2 12.8 36.8 6.4 19.2-6.4 48-25.6 83.2-54.4 8 8 19.2 17.6 33.6 32 6.4 4.8 12.8 9.6 16 12.8 12.8 11.2 24 11.2 35.2 1.6 9.6-11.2 9.6-24 0-38.4-8-9.6-25.6-25.6-51.2-48 16-25.6 30.4-56 40-91.2 9.6-30.4-3.2-46.4-38.4-44.8h-150.4v-19.2c0-8 3.2-9.6 11.2-9.6z" p-id="3330"></path><path d="M512 120C296 120 120 296 120 512c0 8 4.8 16 11.2 20.8 8 4.8 16 4.8 24 0l112-64c11.2-6.4 16-20.8 9.6-32s-20.8-16-32-9.6l-73.6 41.6C192 299.2 337.6 168 512 168c190.4 0 344 153.6 344 344S702.4 856 512 856c-113.6 0-219.2-56-284.8-150.4-8-11.2-22.4-14.4-33.6-6.4-11.2 8-14.4 22.4-6.4 33.6 73.6 107.2 193.6 171.2 323.2 171.2 216 0 392-176 392-392S728 120 512 120z" p-id="3331"></path></svg>